<?xml version="1.0" standalone="no"?>
<!DOCTYPE svg PUBLIC "-//W3C//DTD SVG 20010904//EN"
 "http://www.w3.org/TR/2001/REC-SVG-20010904/DTD/svg10.dtd">
<svg version="1.0" xmlns="http://www.w3.org/2000/svg"
 width="254.000000pt" height="254.000000pt" viewBox="0 0 254.000000 254.000000"
 preserveAspectRatio="xMidYMid meet">
<metadata>
Created by potrace 1.11, written by Peter Selinger 2001-2013
</metadata>
<g transform="translate(0.000000,254.000000) scale(0.100000,-0.100000)"
fill="#000000" stroke="none">
<path d="M965 1766 c-63 -14 -91 -30 -133 -75 -63 -67 -85 -134 -86 -266 -1
-33 -4 -65 -8 -71 -4 -6 -4 -14 -1 -18 12 -12 14 -54 3 -61 -6 -4 -5 -13 3
-26 10 -16 9 -21 -3 -29 -8 -5 -10 -10 -5 -10 15 0 16 -41 2 -59 -7 -9 -8 -12
-1 -8 8 4 11 -8 11 -38 0 -26 -5 -45 -11 -45 -7 0 -7 -3 -1 -8 16 -11 17 -42
3 -60 -7 -9 -8 -13 -2 -9 8 4 11 -8 11 -38 0 -26 -5 -45 -11 -45 -7 0 -7 -3
-1 -8 16 -11 17 -42 3 -60 -7 -9 -8 -13 -2 -9 16 9 16 -105 0 -115 -8 -6 -7
-8 2 -8 6 0 12 -11 12 -25 0 -26 53 -85 76 -85 7 0 15 -6 17 -12 4 -10 6 -10
6 -1 1 7 7 10 15 7 7 -3 31 2 52 12 22 9 42 16 46 16 5 -1 7 1 6 6 -1 4 3 17
10 29 8 15 12 132 12 428 1 373 4 426 26 463 1 2 13 5 27 8 41 7 58 -29 60
-125 0 -45 -2 -84 -6 -87 -3 -3 -2 -16 3 -29 5 -13 7 -25 5 -27 -4 -4 -5 -102
-4 -313 0 -55 0 -104 -1 -110 -2 -5 -2 -14 -1 -18 1 -5 4 -48 6 -95 6 -109 6
-112 18 -105 7 4 8 -1 3 -13 -4 -10 -4 -15 0 -12 4 4 16 1 28 -7 11 -8 29 -15
39 -15 10 0 16 -4 12 -10 -12 -19 90 20 114 45 26 25 26 26 28 213 1 103 3
207 3 232 1 25 1 129 1 232 -1 103 3 198 9 212 11 29 53 44 74 27 7 -6 16 -25
20 -41 3 -17 6 -213 6 -436 1 -302 4 -410 13 -420 30 -34 35 -42 29 -50 -4 -4
-2 -4 5 -1 16 10 44 -3 36 -16 -4 -6 -1 -7 6 -3 18 12 61 14 61 4 0 -5 10 0
22 12 12 11 25 20 30 20 4 0 16 12 25 27 17 25 18 63 18 470 1 244 -3 443 -7
443 -4 0 -8 7 -8 15 0 21 -36 90 -63 121 -50 58 -138 92 -229 88 -54 -3 -145
-34 -158 -54 -4 -6 -30 3 -62 20 -63 34 -133 43 -213 26z"/>
</g>
</svg>
